# AST/ASF file generated using VICON BodyLanguage
# -----------------------------------------------
:version 1.10
:name VICON
:units
  mass 1.0
  length 0.45
  angle deg
:documentation
   .ast/.asf automatically generated from VICON data using
   VICON BodyBuilder and BodyLanguage model FoxedUp or BRILLIANT.MOD
:root
   order TX TY TZ RX RY RZ
   axis XYZ
   position 0 0 0  
   orientation 0 0 0 
:bonedata
  begin
     id 1 
     name lhipjoint
     direction 0.627457 -0.725269 0.283342 
     length 2.53237 
     axis 0 0 0  XYZ
  end
  begin
     id 2 
     name lfemur
     direction 0.34202 -0.939693 0  
     length 7.32496  
     axis 0 0 20  XYZ
    dof rx ry rz
    limits (-160.0 20.0)
           (-70.0 70.0)
           (-60.0 70.0)
  end
  begin
     id 3 
     name ltibia
     direction 0.34202 -0.939693 0   
     length 7.69674   
     axis 0 0 20   XYZ
    dof rx
    limits (-10.0 170.0)
  end
  begin
     id 4 
     name lfoot
     direction 0.127289 -0.349722 0.928166   
     length 1.8612   
     axis -90 7.62852e-016 20   XYZ
    dof rx rz
    limits (-45.0 90.0)
           (-70.0 20.0)
  end
  begin
     id 5 
     name ltoes
     direction 1.53561e-011 -4.21864e-011 1   
     length 0.925608   
     axis -90 7.62852e-016 20   XYZ
    dof rx
    limits (-90.0 20.0)
  end
  begin
     id 6 
     name rhipjoint
     direction -0.609094 -0.738725 0.288599   
     length 2.48624  
     axis 0 0 0  XYZ 
  end
  begin
     id 7 
     name rfemur
     direction -0.34202 -0.939693 0   
     length 7.44259   
     axis 0 0 -20   XYZ
    dof rx ry rz
    limits (-160.0 20.0)
           (-70.0 70.0)
           (-70.0 60.0)
  end
  begin
     id 8 
     name rtibia
     direction -0.34202 -0.939693 0   
     length 7.7781   
     axis 0 0 -20   XYZ
    dof rx
    limits (-10.0 170.0)
 end
 begin
     id 9 
     name rfoot
     direction -0.107015 -0.294021 0.949789   
     length 2.14741  
     axis -90 -7.62852e-016 -20   XYZ
    dof rx rz
    limits (-45.0 90.0)
           (-20.0 70.0)
  end
  begin
     id 10 
     name rtoes
     direction -1.53497e-011 -4.21924e-011 1   
     length 1.0706   
     axis -90 -7.62852e-016 -20   XYZ
    dof rx
    limits (-90.0 20.0)
  end
  begin
     id 11 
     name lowerback
     direction -0.0142066 0.998112 -0.0597545   
     length 1.86627   
     axis 0 0 0   XYZ
    dof rx ry rz
    limits (-20.0 45.0)
           (-30.0 30.0)
           (-30.0 30.0)
  end
  begin
     id 12 
     name upperback
     direction 0.00547294 0.999744 0.0219437   
     length 1.86272   
     axis 0 0 0   XYZ
    dof rx ry rz
    limits (-20.0 45.0)
           (-30.0 30.0)
           (-30.0 30.0)
  end
  begin
     id 13 
     name thorax
     direction 0.0116162 0.998704 0.0495538   
     length 1.8703   
     axis 0 0 0   XYZ
    dof rx ry rz
    limits (-20.0 45.0)
           (-30.0 30.0)
           (-30.0 30.0)
  end
  begin
     id 14 
     name lowerneck
     direction -0.0106574 0.998739 0.0490586   
     length 1.8074   
     axis 0 0 0   XYZ
    dof rx ry rz
    limits (-20.0 45.0)
           (-30.0 30.0)
           (-30.0 30.0)
  end
  begin
     id 15 
     name upperneck
     direction 0.030527 0.976587 -0.212944   
     length 1.80681   
     axis 0 0 0   XYZ
    dof rx ry rz
    limits (-20.0 45.0)
           (-30.0 30.0)
           (-30.0 30.0)
  end
  begin
     id 16
     name head
     direction 0.00869225 0.997035 -0.0764531  
     length 1.8313  
     axis 0 0 0   XYZ
    dof rx ry rz
    limits (-20.0 45.0)
           (-30.0 30.0)
           (-30.0 30.0)
  end
  begin
     id 17 
     name lclavicle
     direction 0.915958 0.399447 0.0382386  
     length 3.78965  
     axis 0 0 0   XYZ
    dof ry rz
    limits (-20.0 10.0)
           (0.0 20.0)
  end
  begin
     id 18 
     name lhumerus
     direction 1 -4.48967e-011 3.19303e-027   
     length 4.78095   
     axis -180 -30 -90   XYZ
    dof rx ry rz
    limits (-60.0 90.0)
           (-90.0 90.0)
           (-90.0 90.0)
  end
  begin
     id 19
     name lradius
     direction 1 -4.48967e-011 -3.77974e-027   
     length 3.58615   
     axis -180 -30 -90   XYZ
    dof rx
    limits (-10.0 170.0)
  end
  begin
     id 20
     name lwrist
     direction 1 -4.48927e-011 1.2807e-027   
     length 1.79307   
     axis 1.91374e-015 90 90   XYZ
    dof ry
    limits (-180.0 0.0)
 end
  begin
     id 21 
     name lhand
     direction 1 -4.49036e-011 2.5614e-027   
     length 0.659812   
     axis -1.63439e-015 90 90   XYZ
    dof rx rz
    limits (-90.0 90.0)
           (-45.0 45.0)
  end
  begin
     id 22 
     name lfingers
     direction 1 -4.49052e-011 5.1228e-027   
     length 0.531957   
     axis -3.26879e-015 90 90   XYZ
    dof rx
    limits (0.0 90.0)
  end
  begin
     id 23
     name lthumb
     direction 0.707107 -6.35012e-011 0.707107   
     length 0.763787   
     axis -90 45 2.85299e-015   XYZ
    dof rx rz
    limits (-45.0 45.0)
           (-45.0 45.0)
  end
  begin
     id 24 
     name rclavicle
     direction -0.895351 0.435135 0.0948887   
     length 3.70497  
     axis 0 0 0   XYZ 
    dof ry rz
    limits (-10.0 20.0)
           (-20.0 0.0)
  end
  begin
     id 25 
     name rhumerus
     direction -1 -4.48971e-011 2.38946e-027  
     length 4.48913   
     axis -180 30 90   XYZ
    dof rx ry rz
    limits (-90.0 60.0)
           (-90.0 90.0)
           (-90.0 90.0)
  end
  begin
     id 26 
     name rradius
     direction -1 -4.4895e-011 4.38668e-027   
     length 3.7051   
     axis -180 30 90   XYZ
    dof rx
    limits (-10.0 170.0)
  end
  begin
     id 27 
     name rwrist
     direction -1 -4.49007e-011 1.2807e-027   
     length 1.85255   
     axis 1.91374e-015 -90 -90   XYZ
    dof ry
    limits (-180.0 0.0)
  end
  begin
     id 28
     name rhand
     direction -1 -4.48851e-011 2.5614e-027   
     length 0.449136   
     axis -1.63439e-015 -90 -90   XYZ
    dof rx rz
    limits (-90.0 90.0)
           (-45.0 45.0)
  end
  begin
     id 29
     name rfingers
     direction -1 -4.49128e-011 5.1228e-027   
     length 0.362105   
     axis -3.26879e-015 -90 -90   XYZ
    dof rx
    limits (0.0 90.0)
  end
  begin
     id 30
     name rthumb
     direction -0.707107 -6.34851e-011 0.707107   
     length 0.519912   
     axis -90 -45 -2.85299e-015   XYZ
    dof rx rz
    limits (-45.0 45.0)
           (-45.0 45.0)
  end
:hierarchy
  begin
    root lhipjoint rhipjoint lowerback
    lhipjoint lfemur
    lfemur ltibia
    ltibia lfoot
    lfoot ltoes
    rhipjoint rfemur
    rfemur rtibia
    rtibia rfoot
    rfoot rtoes
    lowerback upperback
    upperback thorax
    thorax lowerneck lclavicle rclavicle
    lowerneck upperneck
    upperneck head
    lclavicle lhumerus
    lhumerus lradius
    lradius lwrist
    lwrist lhand lthumb
    lhand lfingers
    rclavicle rhumerus
    rhumerus rradius
    rradius rwrist
    rwrist rhand rthumb
    rhand rfingers
  end

#!OML:ASF I:\Actors\actors\Patient Classification 2\Patient 1\Session 1\actor1.ASF
:FULLY-SPECIFIED
:DEGREES
68
root -0.912342 18.675 6.14773 1.35792 -4.03628 -4.37173
lowerback 4.47051 1.49634 1.60795
upperback -3.05168 2.17014 1.0815
thorax -5.65679 1.03372 0.0200463
lowerneck -9.96971 -0.490363 2.02592
upperneck 26.0511 -1.16831 0.179346
head 9.88315 -0.325505 -0.416501
rclavicle 4.05024e-015 -9.14409e-015
rhumerus -51.9957 -5.31091 -84.9209
rradius 42.0681
rwrist 17.7189
rhand -8.38552 -29.3947
rfingers 7.12502
rthumb 17.5379 -58.6237
lclavicle 4.05024e-015 -9.14409e-015
lhumerus -45.5571 5.50567 87.0121
lradius 36.7203
lwrist -13.9695
lhand -5.54301 -24.7508
lfingers 7.12502
lthumb 20.2716 4.21133
rfemur 0 0 0
rtibia 0
rfoot 0 0
rtoes 0
lfemur -4.15062 -6.12268 -10.7887
ltibia 23.2533
lfoot -25.5407 15.4772
ltoes -53.7597
69
root -0.912654 18.6755 6.14757 1.36849 -4.02448 -4.39272
lowerback 4.47869 1.49236 1.6209
upperback -3.04945 2.16652 1.09366
thorax -5.65919 1.03166 0.0255488
lowerneck -9.99533 -0.486049 2.00935
upperneck 26.0515 -1.16278 0.192108
head 9.88847 -0.323029 -0.4087
rclavicle 5.82688e-015 -1.15295e-014
rhumerus -51.9898 -5.3063 -84.9237
rradius 42.0537
rwrist 17.7332
rhand -8.40802 -29.397
rfingers 7.12502
rthumb 17.5162 -58.6278
lclavicle 5.82688e-015 -1.15295e-014
lhumerus -45.5886 5.51691 87.0056
lradius 36.7392
lwrist -13.9729
lhand -5.48193 -24.7152
lfingers 7.12502
lthumb 20.3303 4.24068
rfemur 0 0 0
rtibia 0
rfoot 0 0
rtoes 0
lfemur -4.16896 -6.14485 -10.7623
ltibia 23.2587
lfoot -25.5422 15.5054
ltoes -53.8054
70
root -0.912821 18.676 6.14737 1.38108 -4.01946 -4.40241
lowerback 4.46714 1.49007 1.62586
upperback -3.03508 2.16325 1.09476
thorax -5.63738 1.03012 0.0247573
lowerneck -10.029 -0.482675 2.02317
upperneck 26.0393 -1.1604 0.187444
head 9.89052 -0.321145 -0.412535
rclavicle -4.8578e-015 1.98785e-015
rhumerus -51.9569 -5.29959 -84.9464
rradius 42.0369
rwrist 17.7185
rhand -8.40754 -29.3399
rfingers 7.12502
rthumb 17.5167 -58.5708
lclavicle -4.8578e-015 1.98785e-015
lhumerus -45.5846 5.4692 87.023
lradius 36.7669
lwrist -13.8425
lhand -5.41131 -24.6511
lfingers 7.12502
lthumb 20.3982 4.2975
rfemur 0 0 0
rtibia 0
rfoot 0 0
rtoes 0
lfemur -4.18981 -6.17125 -10.7507
ltibia 23.2656
lfoot -25.5378 15.5748
ltoes -53.8981
71
root -0.912658 18.676 6.14734 1.39062 -4.01646 -4.40363
lowerback 4.44936 1.49073 1.62796
upperback -3.01796 2.16338 1.09356
thorax -5.60908 1.03038 0.0230826
lowerneck -10.0494 -0.475538 2.02613
upperneck 26.0155 -1.15368 0.197352
head 9.88605 -0.316803 -0.408811
rclavicle -9.36773e-015 -7.95139e-015
rhumerus -51.9394 -5.29652 -84.9659
rradius 42.0557
rwrist 17.6933
rhand -8.37348 -29.3607
rfingers 7.12502
rthumb 17.5495 -58.5886
lclavicle -9.36773e-015 -7.95139e-015
lhumerus -45.5538 5.43518 87.0432
lradius 36.7614
lwrist -13.8018
lhand -5.36768 -24.6384
lfingers 7.12502
lthumb 20.4401 4.30574
rfemur 0 0 0
rtibia 0
rfoot 0 0
rtoes 0
lfemur -4.20449 -6.19912 -10.7526
ltibia 23.2749
lfoot -25.5097 15.6207
ltoes -54.0141
72
root -0.912668 18.6761 6.1472 1.39881 -4.01284 -4.41163
lowerback 4.45391 1.497 1.65201
upperback -3.02046 2.17324 1.08675
thorax -5.61309 1.03413 0.00151675
lowerneck -10.0239 -0.464692 2.02455
upperneck 25.9888 -1.14402 0.225204
head 9.8719 -0.309644 -0.397476
rclavicle 1.33931e-014 1.98785e-015
rhumerus -51.9503 -5.32538 -84.9684
rradius 42.0748
rwrist 17.7113
rhand -8.31061 -29.4081
rfingers 7.12502
rthumb 17.61 -58.6306
lclavicle 1.33931e-014 1.98785e-015
lhumerus -45.5417 5.43609 87.029
lradius 36.7341
lwrist -13.8773
lhand -5.34742 -24.6848
lfingers 7.12502
lthumb 20.4596 4.2573
rfemur 0 0 0
rtibia 0
rfoot 0 0
rtoes 0
lfemur -4.21322 -6.20148 -10.7445
ltibia 23.2803
lfoot -25.4975 15.635
ltoes -54.019
